# xmcd CD database file
#
# Track frame offsets:
#	150
#	13589
#	39927
#	55489
#	70127
#	85889
#	108377
#	125452
#	146179
#	165143
#	185282
#	205466
#	228072
#	231599
#	257574
#
# Disc length: 3578 seconds
#
# Revision: 0
# Processed by: cddbd v1.5PL3 Copyright (c) Steve Scherf et al.
# Submitted via: CDex 1.51
#
DISCID=c80df80f
DTITLE=Sojio - Healing Garden
DYEAR=1997
DGENRE=New Age
TTITLE0=Childhood's Memory
TTITLE1=Moon Light
TTITLE2=Rainbow
TTITLE3=Poem In The Evening
TTITLE4=Harmony
TTITLE5=Calm Happiness
TTITLE6=Rain Drops
TTITLE7=Autumn Winds
TTITLE8=Bird's Song
TTITLE9=Apple Tree
TTITLE10=Cloud
TTITLE11=Poem
TTITLE12=Mother Land
TTITLE13=The Sunset
TTITLE14=Voyage
EXTD=YEAR: 1997
EXTT0=
EXTT1=
EXTT2=
EXTT3=
EXTT4=
EXTT5=
EXTT6=
EXTT7=
EXTT8=
EXTT9=
EXTT10=
EXTT11=
EXTT12=
EXTT13=
EXTT14=
PLAYORDER=
